<?xml version="1.0" standalone="no"?>
<!DOCTYPE svg PUBLIC "-//W3C//DTD SVG 20010904//EN"
 "http://www.w3.org/TR/2001/REC-SVG-20010904/DTD/svg10.dtd">
<svg version="1.0" xmlns="http://www.w3.org/2000/svg"
 width="300.000000pt" height="300.000000pt" viewBox="0 0 300.000000 300.000000"
 preserveAspectRatio="xMidYMid meet">
<metadata>
Created by potrace 1.11, written by Peter Selinger 2001-2013
</metadata>
<g transform="translate(0.000000,300.000000) scale(0.100000,-0.100000)"
fill="#000000" stroke="none">
<path d="M0 1500 l0 -1500 1500 0 1500 0 0 1500 0 1500 -1500 0 -1500 0 0
-1500z m1062 687 c119 -34 210 -103 247 -187 78 -178 25 -352 -133 -438 l-48
-26 60 -27 c72 -32 135 -88 165 -143 19 -35 22 -57 22 -151 0 -101 -2 -114
-28 -165 -67 -128 -188 -208 -357 -235 -96 -15 -599 -22 -634 -9 -14 6 -16 77
-16 706 l0 700 333 -4 c268 -4 343 -8 389 -21z m773 1 c3 -13 4 -143 3 -291
l-3 -267 45 0 c26 0 57 8 73 18 15 9 80 85 145 167 267 342 294 374 325 384
31 11 297 16 297 5 0 -8 -448 -561 -495 -610 l-40 -43 32 -25 c17 -14 83 -94
145 -178 273 -365 380 -511 385 -523 3 -9 -5 -17 -22 -21 -32 -8 -253 0 -277
11 -10 4 -57 59 -105 123 -222 295 -347 454 -364 463 -10 5 -45 10 -79 12
l-61 2 1 -297 c1 -285 0 -297 -19 -308 -21 -11 -218 -14 -245 -4 -14 6 -16 77
-16 705 l0 699 135 0 c131 0 135 -1 140 -22z"/>
<path d="M610 1801 l0 -191 125 0 c201 0 276 25 314 104 45 91 14 210 -64 250
-35 18 -62 21 -207 24 l-168 3 0 -190z"/>
<path d="M610 1218 l0 -193 182 5 c160 4 188 8 223 26 52 27 82 73 90 138 9
72 -8 127 -50 165 -50 43 -90 51 -277 51 l-168 0 0 -192z"/>
</g>
</svg>
