<svg version="1" xmlns="http://www.w3.org/2000/svg" width="1365.333" height="1365.333" viewBox="0 0 1024.000000 1024.000000"><path d="M0 512v512h1024V0H0v512zm390-193.6c47.8 7 77 23.5 90.5 51 5.7 11.5 8.4 22.2 9.2 36.1 1 19.4-2.7 37-11.2 53.1-8.9 16.9-19.3 27.4-34.7 34.7-4.8 2.3-8.7 4.7-8.8 5.3 0 .7 3.9 2.4 8.8 3.9 18.7 5.8 31.3 13.6 44.2 27.2 6.1 6.4 9 10.6 12.5 17.6 7.6 15.4 8.9 21.9 8.9 45.2.1 17.6-.2 21.1-2.2 28.9-10.8 42.6-45.7 71.7-97.9 81.5-21.3 4.1-26.5 4.3-106 4.8l-78.3.5V315.9l76.8.4c65.5.3 78.4.6 88.2 2.1zM609 405c0 71 .3 89 1.3 89 .7 0 32.6-40.1 71-89l69.9-89h37.9c31.8 0 37.9.2 37.2 1.4-.4.7-27.1 34.7-59.3 75.5-32.2 40.8-58.6 74.7-58.8 75.4-.1.7 29.9 52.6 66.9 115.2 36.9 62.7 68.5 116.4 70.1 119.2l3 5.3h-75.8l-52.9-92c-29-50.7-53.1-92.3-53.5-92.5-.3-.2-13.3 15.4-28.8 34.7L609 593.3V708h-69V316h69v89z"/><path d="M294 423.5V478h29.8c41.5 0 54.3-1.7 69.9-9.1 5.7-2.7 9.8-5.6 14.1-9.9 10-9.9 14.2-20.9 14.2-37 0-32.6-17.7-48-59.5-52-6-.5-23.9-1-39.7-1H294v54.5zM294 591.4V654h37.6c41.6 0 51.9-.9 67.6-5.9 16.8-5.5 30.7-15.8 37.1-27.8 6-11.3 8.5-31.5 5.6-45.5-4-19.4-18.7-33.3-41.9-39.8-15.6-4.3-24.7-5.1-66.2-5.7l-39.8-.6v62.7z"/></svg>